<svg width="50" height="50" viewBox="0 0 26 22" fill="none" xmlns="http://www.w3.org/2000/svg">
<path d="M10.8333 13.75L10.8333 11" stroke="#222222" stroke-width="1.2" stroke-linecap="round"/>
<path d="M15.1667 13.75L15.1667 11" stroke="#222222" stroke-width="1.2" stroke-linecap="round"/>
<path d="M3.25 6.4165H22.75C21.5827 6.4165 20.999 6.4165 20.5572 6.65266C20.2084 6.83913 19.9226 7.12486 19.7362 7.47371C19.5 7.91553 19.5 8.49919 19.5 9.6665V14.3332C19.5 16.2188 19.5 17.1616 18.9142 17.7474C18.3284 18.3332 17.3856 18.3332 15.5 18.3332H10.5C8.61438 18.3332 7.67157 18.3332 7.08579 17.7474C6.5 17.1616 6.5 16.2188 6.5 14.3332V9.66651C6.5 8.49919 6.5 7.91553 6.26384 7.47371C6.07738 7.12486 5.79165 6.83913 5.44279 6.65266C5.00097 6.4165 4.41732 6.4165 3.25 6.4165Z" fill="#7E869E" fill-opacity="0.25" stroke="#222222" stroke-width="1.2" stroke-linecap="round"/>
<path d="M10.9072 3.08971C11.0306 2.99225 11.3026 2.90613 11.681 2.84471C12.0594 2.78329 12.523 2.75 13 2.75C13.4769 2.75 13.9406 2.78329 14.319 2.84471C14.6974 2.90613 14.9694 2.99225 15.0928 3.08971" stroke="#222222" stroke-width="1.2" stroke-linecap="round"/>
</svg>
